<svg xmlns="http://www.w3.org/2000/svg" width="46.229" height="31.206" viewBox="0 0 46.229 31.206"><path d="M.072,32.51V6.832q0-.045.134-.847L15.318,18.913.25,33.4a3.778,3.778,0,0,1-.178-.892ZM2.078,4.2a1.921,1.921,0,0,1,.758-.134h40.7a2.524,2.524,0,0,1,.8.134L29.183,17.174l-2.006,1.6-3.968,3.254-3.968-3.254-2.006-1.6ZM2.123,35.14l15.2-14.578,5.885,4.77,5.885-4.77L44.3,35.14a2.14,2.14,0,0,1-.758.134H2.836a2.019,2.019,0,0,1-.713-.134ZM31.1,18.913,46.168,5.985a2.661,2.661,0,0,1,.134.847V32.51a3.417,3.417,0,0,1-.134.892Z" transform="translate(-0.072 -4.068)" fill="#fff"/></svg>