<svg xmlns="http://www.w3.org/2000/svg" width="300.6" height="249" viewBox="0 0 300.6 249"><path d="M.072,230.726V26.094c0-.237-.579-16.878,0-21.141l104,107.971L.072,245.672c-.771-3.316,0-13.525,0-14.946Zm8-225.773c1.35-.711,8.008-.885,9.936-.885H282.136c1.736,0,7.342.174,9.078.885L188.982,108.515,175.964,121.3l-25.747,25.934L124.469,121.3l-13.018-12.789Zm-3.077,247.8L112.072,119.676l38.145,38.013L188.4,119.676,296.072,252.752H18.008c-1.543,0-11.471.711-13.014,0ZM195.968,112.924,300.072,4.953c.579,2.132,0,18.773,0,21.141V245.672Z" transform="translate(0.271 -4.068)" fill="#fff"/></svg>