<svg xmlns="http://www.w3.org/2000/svg" width="37.781" height="36.837" viewBox="0 0 37.781 36.837"><path d="M12.637,30.224c0,.152-.175.274-.4.274-.251.023-.427-.1-.427-.274,0-.152.175-.274.4-.274C12.439,29.927,12.637,30.049,12.637,30.224Zm-2.369-.343c-.053.152.1.328.328.373a.357.357,0,0,0,.472-.152c.046-.152-.1-.328-.328-.4A.391.391,0,0,0,10.268,29.881Zm3.367-.129c-.221.053-.373.2-.35.373.023.152.221.251.449.2s.373-.2.35-.35S13.856,29.729,13.635,29.751ZM18.647.563A18.265,18.265,0,0,0,0,19.148a19.1,19.1,0,0,0,12.911,18.22c.975.175,1.318-.427,1.318-.922,0-.472-.023-3.077-.023-4.677,0,0-5.332,1.143-6.452-2.27,0,0-.868-2.217-2.118-2.788,0,0-1.744-1.2.122-1.173A4.021,4.021,0,0,1,8.7,27.5,4.027,4.027,0,0,0,14.252,29.1a4.234,4.234,0,0,1,1.219-2.567c-4.258-.472-8.554-1.089-8.554-8.417a5.773,5.773,0,0,1,1.8-4.487,7.2,7.2,0,0,1,.2-5.172c1.592-.5,5.256,2.057,5.256,2.057a17.995,17.995,0,0,1,9.567,0S27.4,7.951,28.991,8.454a7.193,7.193,0,0,1,.2,5.172,5.921,5.921,0,0,1,1.965,4.487c0,7.351-4.487,7.937-8.744,8.417A4.5,4.5,0,0,1,23.7,30.064c0,2.567-.023,5.743-.023,6.368,0,.5.35,1.1,1.318.922A18.921,18.921,0,0,0,37.781,19.148C37.781,8.583,29.212.563,18.647.563ZM7.4,26.834c-.1.076-.076.251.053.4.122.122.3.175.4.076.1-.076.076-.251-.053-.4C7.678,26.788,7.5,26.735,7.4,26.834Zm-.823-.617c-.053.1.023.221.175.3a.227.227,0,0,0,.328-.053c.053-.1-.023-.221-.175-.3C6.756,26.118,6.635,26.141,6.581,26.217Zm2.468,2.712c-.122.1-.076.328.1.472.175.175.4.2.5.076.1-.1.053-.328-.1-.472C9.377,28.83,9.148,28.807,9.049,28.929Zm-.868-1.12c-.122.076-.122.274,0,.449s.328.251.427.175a.347.347,0,0,0,0-.472C8.5,27.786,8.3,27.71,8.181,27.809Z" transform="translate(0 -0.563)" fill="#e2e2e2"/></svg>