<svg xmlns="http://www.w3.org/2000/svg" width="59.88" height="60" viewBox="0 0 59.88 60"><path d="M0,29.76A28.882,28.882,0,0,1,2.4,18.12,28.98,28.98,0,0,1,18.3,2.22a29.427,29.427,0,0,1,23.28,0,29.231,29.231,0,0,1,15.9,15.9,29.427,29.427,0,0,1,0,23.28,29.447,29.447,0,0,1-15.9,16.02,29.427,29.427,0,0,1-23.28,0A29.191,29.191,0,0,1,2.4,41.4,28.882,28.882,0,0,1,0,29.76Zm4.68,0A24.406,24.406,0,0,0,9.72,44.88a26.973,26.973,0,0,0,13.02,9.3v-4.8a5.84,5.84,0,0,1,2.4-5.22,17.223,17.223,0,0,1-2.82-.42,14.177,14.177,0,0,1-5.22-1.92q-5.46-3.3-5.46-11.94a10.789,10.789,0,0,1,3-7.68,10.094,10.094,0,0,1,.3-7.68h1.2a4.936,4.936,0,0,1,1.5.3,20.631,20.631,0,0,1,5.22,2.64,28.3,28.3,0,0,1,7.2-.96,29,29,0,0,1,7.26.96,25.563,25.563,0,0,1,4.38-2.4,6.5,6.5,0,0,1,2.76-.6l.72.06a10.479,10.479,0,0,1,.3,7.68,10.789,10.789,0,0,1,3,7.68q0,6.72-3.3,10.14a12.065,12.065,0,0,1-4.74,3,20.633,20.633,0,0,1-5.46,1.14,5.972,5.972,0,0,1,2.46,5.22v4.8a27.174,27.174,0,0,0,12.78-9.42,24.451,24.451,0,0,0,4.92-15,25.286,25.286,0,0,0-1.98-9.84A25.528,25.528,0,0,0,29.94,4.5,25.517,25.517,0,0,0,20.1,6.54a26.381,26.381,0,0,0-8.04,5.34,27.832,27.832,0,0,0-5.4,8.04,25.286,25.286,0,0,0-1.98,9.84Z" transform="translate(0 0.18)" fill="#fff"/></svg>