<svg xmlns="http://www.w3.org/2000/svg" width="37.781" height="37.781" viewBox="0 0 37.781 37.781"><path d="M35.082,2.25H2.69A2.71,2.71,0,0,0,0,4.974V37.307a2.71,2.71,0,0,0,2.69,2.724H35.082a2.717,2.717,0,0,0,2.7-2.724V4.974A2.717,2.717,0,0,0,35.082,2.25ZM11.419,34.634h-5.6V16.6h5.608v18.03Zm-2.8-20.493a3.247,3.247,0,1,1,3.247-3.247A3.248,3.248,0,0,1,8.619,14.141Zm23.79,20.493h-5.6V25.863c0-2.091-.042-4.782-2.909-4.782-2.918,0-3.365,2.277-3.365,4.63v8.922h-5.6V16.6h5.372v2.463h.076a5.9,5.9,0,0,1,5.3-2.909c5.667,0,6.721,3.736,6.721,8.594Z" transform="translate(0 -2.25)" fill="#e2e2e2"/></svg>