<svg xmlns="http://www.w3.org/2000/svg" xmlns:xlink="http://www.w3.org/1999/xlink" width="300" height="300" viewBox="0 0 300 300"><defs><clipPath id="b"><rect width="300" height="300"/></clipPath></defs><g id="a" clip-path="url(#b)"><g transform="translate(104 22.084)"><path d="M440.276,58.513c-.283.057-.568.682-.568,1.022-.057,2.273-.113,8.3-.113,12.387a.421.421,0,0,0,.341.341c.852.057,2.9.113,4.659.113a12.163,12.163,0,0,0,4.66-.681c2.045-1.023,3.011-3.239,3.011-5.683,0-5.511-3.864-7.614-9.6-7.614a9.115,9.115,0,0,0-2.387.114Zm14.661,25.4c0-5.625-4.148-8.751-11.649-8.751-.341,0-2.728-.057-3.3.057-.171.057-.4.171-.4.342,0,4.034-.057,10.455.113,12.955a4.288,4.288,0,0,0,1.876,3.068c1.022.568,3.352.682,4.943.682,4.489,0,8.41-2.5,8.41-8.353ZM428.685,55.388c.568,0,2.272.17,6.648.17,4.148,0,7.444-.113,11.478-.113,4.943,0,11.762,1.761,11.762,9.148,0,3.637-2.557,6.535-5.909,7.955-.17.057-.17.17,0,.227,4.773,1.194,8.978,4.148,8.978,9.716,0,5.455-3.409,8.921-8.353,11.081a27.179,27.179,0,0,1-10.569,1.761c-2.9,0-10.683-.341-15-.227-.454-.171.4-2.217.795-2.557a10.607,10.607,0,0,0,2.9-.455c1.534-.4,1.7-.852,1.932-3.182.114-1.989.114-9.035.114-14.035,0-6.875.057-11.535,0-13.807-.057-1.761-.682-2.33-1.932-2.671-.967-.17-2.557-.4-3.864-.568-.284-.284.682-2.217,1.023-2.443ZM395.9,90.731c1.365,1.079,4.035,1.533,6.422,1.533a12.59,12.59,0,0,0,9.091-3.239c3.012-2.727,5.114-6.931,5.114-13.636,0-6.422-2.443-11.649-7.444-14.717-2.841-1.762-6.478-2.5-10.683-2.5a8.515,8.515,0,0,0-3.182.4,1.67,1.67,0,0,0-.568.909c-.114,1.137-.114,9.887-.114,15,0,5.284,0,12.671.114,13.524a3.523,3.523,0,0,0,1.25,2.728ZM383,55.387c1.08,0,5.228.171,7.216.171,3.581,0,6.137-.17,12.9-.17,5.682,0,10.455,1.534,13.865,4.431,4.148,3.58,6.308,8.524,6.308,14.546,0,8.58-3.921,13.524-7.842,16.365-3.92,2.9-9.034,4.6-16.307,4.6-3.864,0-10.512-.113-16.024-.171h-.057c-.284-.511.454-2.5.909-2.557a9.058,9.058,0,0,0,2.614-.511c1.193-.455,1.421-1.08,1.591-3.182.17-3.921.113-8.637.113-13.979,0-3.807.057-11.251-.057-13.637-.17-1.988-1.022-2.5-2.727-2.841-.852-.17-1.989-.4-3.579-.568-.228-.4.795-2.159,1.079-2.5Z" transform="translate(-283.641 130.529)" fill="#fff" fill-rule="evenodd"/><path d="M199.265,101.173a11.428,11.428,0,0,1-3.693-.965,1.731,1.731,0,0,1-.455-.909C195,97.309,195,91.627,195,87.821c0-3.069-.511-5.739-1.818-7.614a7.758,7.758,0,0,0-6.592-3.409c-2.5,0-5.853,1.7-8.637,4.091-.057.057-.511.455-.454-.171,0-.625.114-1.875.171-2.728a1.473,1.473,0,0,0-.4-1.193,37.924,37.924,0,0,1-8.808,2.272c-1.363.285-1.7,1.592-.283,2.046h.057a12.608,12.608,0,0,1,3.351,1.478,1.767,1.767,0,0,1,.512,1.591c.057,4.261.057,10.8-.113,14.376-.057,1.421-.454,1.932-1.478,2.159l.114-.057a22.436,22.436,0,0,1-2.387.454,3.322,3.322,0,0,0,0,2.557c.625,0,3.92-.171,6.649-.171,3.75,0,5.682.171,6.648.171a3.7,3.7,0,0,0,.284-2.557,10.52,10.52,0,0,1-2.614-.4c-1.023-.228-1.307-.738-1.364-1.932-.113-3.012-.113-9.376-.113-13.694a2.74,2.74,0,0,1,.681-2.1,8.6,8.6,0,0,1,5.285-1.932,5.875,5.875,0,0,1,3.92,1.307,5.588,5.588,0,0,1,1.818,3.579c.284,2.443.171,7.273.171,11.478,0,2.273-.171,2.841-1.022,3.125a10.815,10.815,0,0,1-2.614.511,3.327,3.327,0,0,0,0,2.558c1.648,0,3.58-.171,6.421-.171,3.523,0,5.8.171,6.705.171a3.963,3.963,0,0,0,.17-2.444ZM215,79.468c-3.011,0-4.887,2.329-4.887,5.965,0,3.694,1.648,7.955,6.307,7.955a4.4,4.4,0,0,0,2.954-1.137,7.524,7.524,0,0,0,1.819-5.228c0-4.716-2.33-7.557-6.194-7.557Zm-.4,25.114a4.884,4.884,0,0,0-2.443.626c-2.387,1.533-3.466,3.011-3.466,4.773a5.026,5.026,0,0,0,1.989,4.09,10.1,10.1,0,0,0,6.818,2.1c5.8,0,8.353-3.126,8.353-6.193,0-2.16-1.08-3.581-3.3-4.375-1.591-.682-4.489-1.023-7.955-1.023Zm.4,14.774a12.572,12.572,0,0,1-8.125-2.387,7.489,7.489,0,0,1-3.012-5.625A4.353,4.353,0,0,1,205,108.5a30.135,30.135,0,0,1,5.228-4.2c.113-.057.17-.113.17-.228a.376.376,0,0,0-.227-.283c-2.67-1.023-3.466-2.671-3.694-3.58v-.114c-.056-.341-.17-.682.342-1.023.4-.284.966-.625,1.59-1.022a23.34,23.34,0,0,0,2.614-1.706.415.415,0,0,0,.114-.34.376.376,0,0,0-.228-.284c-3.976-1.307-5.965-4.262-5.965-8.694a8.627,8.627,0,0,1,3.636-7.159,16.707,16.707,0,0,1,8.183-2.784h.171a17.424,17.424,0,0,1,6.25,1.364,10.518,10.518,0,0,0,3.694.568,4.918,4.918,0,0,0,3.976-1.477,3.086,3.086,0,0,1,.228,1.136,4.291,4.291,0,0,1-.739,2.614,3.227,3.227,0,0,1-2.5,1.08h-.284a12.66,12.66,0,0,1-1.478-.228l-.227.114c-.057.114,0,.227.057.4l.057.114a20.976,20.976,0,0,1,.341,2.443c0,4.659-1.875,6.7-3.864,8.239A13.085,13.085,0,0,1,215.8,96a7.155,7.155,0,0,0-.8.057c-.284,0-.682.057-.739.057h-.057c-.454.113-1.59.682-1.59,1.647,0,.852.511,1.876,2.954,2.046.511.057,1.022.057,1.591.114,3.239.227,7.273.511,9.148,1.136a6.367,6.367,0,0,1,4.262,6.08c0,4.206-3.011,8.126-8.011,10.569A18.279,18.279,0,0,1,215,119.356Zm32.388-39.6a5.277,5.277,0,0,0-3.068.852c-2.215,1.364-3.352,4.092-3.352,8.069,0,7.444,3.75,12.672,9.091,12.672a5.782,5.782,0,0,0,3.92-1.364c1.648-1.364,2.5-4.092,2.5-7.9,0-7.386-3.694-12.33-9.091-12.33Zm1.023,24.319c-9.66,0-13.126-7.1-13.126-13.751a12.3,12.3,0,0,1,5.625-10.8,17.1,17.1,0,0,1,8.694-2.557c7.386,0,12.557,5.284,12.557,12.9,0,5.17-2.045,9.261-5.967,11.762a15.757,15.757,0,0,1-7.785,2.443h0ZM147.16,79.751a5.279,5.279,0,0,0-3.069.852c-2.215,1.364-3.352,4.092-3.352,8.069,0,7.444,3.75,12.672,9.091,12.672a5.784,5.784,0,0,0,3.921-1.364c1.647-1.364,2.5-4.092,2.5-7.9C156.251,84.7,152.615,79.751,147.16,79.751Zm1.023,24.32c-9.66,0-13.126-7.1-13.126-13.751a12.3,12.3,0,0,1,5.625-10.8,17.1,17.1,0,0,1,8.694-2.557c7.387,0,12.557,5.284,12.557,12.9,0,5.17-2.045,9.261-5.967,11.762a15.392,15.392,0,0,1-7.784,2.443ZM83.235,103.5a2.429,2.429,0,0,1-.171-1.307,1.92,1.92,0,0,1,.171-.852,20.959,20.959,0,0,0,2.5-.512c1.137-.284,1.591-.909,1.648-2.329.171-3.409.171-9.888.114-14.376v-.114a1.721,1.721,0,0,0-.625-1.591,12.838,12.838,0,0,0-3.409-1.478c-.511-.169-.852-.454-.8-.794,0-.341.341-.739,1.08-.853a41.573,41.573,0,0,0,8.693-2.216,1.406,1.406,0,0,1,.284.909l-.057.624c-.057.626-.114,1.364-.114,2.1a.44.44,0,0,0,.454.4A.8.8,0,0,0,93.35,81c3.637-2.841,6.932-3.864,8.636-3.864,2.785,0,4.944,1.307,6.592,4.034a.428.428,0,0,0,.4.228.4.4,0,0,0,.34-.171c3.353-2.557,6.705-4.092,8.921-4.092,5.284,0,8.41,3.921,8.41,10.569,0,1.875,0,4.318-.057,6.535,0,1.988-.057,3.807-.057,5.114a1.788,1.788,0,0,0,1.022,1.363,12.133,12.133,0,0,0,3.3.8h.057a4.557,4.557,0,0,1-.34,2.159,13.963,13.963,0,0,1-1.421-.057q-2.158-.113-4.319-.114c-3.523,0-5.341.057-7.1.171a5.544,5.544,0,0,1,0-2.159,17.643,17.643,0,0,0,2.16-.511c1.137-.341,1.421-.853,1.478-2.33,0-1.079.227-10.285-.115-12.5a5.6,5.6,0,0,0-5.8-4.943,10.076,10.076,0,0,0-5.8,2.215,1.013,1.013,0,0,0-.228.568v.057a26.169,26.169,0,0,1,.228,4.659v3.693c0,2.557-.057,4.944,0,6.761a1.665,1.665,0,0,0,1.364,1.762c.341.056.568.113.852.17.511.114,1.023.228,1.818.4a3.067,3.067,0,0,1-.057,1.591,1.09,1.09,0,0,1-.228.568c-1.932-.057-3.92-.114-6.818-.114-.852,0-2.33.057-3.58.057-1.023,0-1.989.057-2.557.057a3,3,0,0,1-.171-1.137,1.77,1.77,0,0,1,.228-1.023,3.842,3.842,0,0,1,.8-.113c.681-.114,1.25-.228,1.818-.341.967-.284,1.307-.8,1.364-2.045.171-2.841.341-10.966-.057-13.012-.682-3.3-2.557-4.943-5.569-4.943a10.426,10.426,0,0,0-5.8,2.217,1.835,1.835,0,0,0-.512,1.306v3.353c0,4.091,0,9.205.057,11.421a1.762,1.762,0,0,0,1.591,1.761,11.9,11.9,0,0,0,1.307.228l1.022.17a4.765,4.765,0,0,1-.17,2.159c-.568,0-1.25-.057-2.046-.057-1.193-.057-2.727-.114-4.431-.114-1.989,0-3.409.057-4.546.114a13.728,13.728,0,0,0-2.1-.114Z" transform="translate(-168.661 122.302)" fill="#fff" fill-rule="evenodd"/><path d="M39.871,192.936l-5.324-1.82s.65-27.142-9.091-29.089c-6.492-7.533,1.041-319.48,24.417-1.04,0,0-8.053,4.025-9.481,10.91-1.559,6.754-.521,21.039-.521,21.039Z" transform="translate(9.46 -7.02)" fill="#fff" fill-rule="evenodd"/><path d="M39.871,192.936l-5.324-1.82s.65-27.142-9.091-29.089c-6.492-7.533,1.041-319.48,24.417-1.04,0,0-8.053,4.025-9.481,10.91-1.559,6.754-.521,21.039-.521,21.039Z" transform="translate(9.46 -7.02)" fill="#a6a385" fill-rule="evenodd"/><path d="M39.452,173.818S86.077,143.168,75.166,79.4C64.647,33.04,39.842,17.845,37.115,12,34.128,7.845,31.27.573,31.27.573l1.949,128.958c0,.131-4.026,39.481,6.234,44.288" transform="translate(12.737 -14.136)" fill="#fff" fill-rule="evenodd"/><path d="M39.452,173.818S86.077,143.168,75.166,79.4C64.647,33.04,39.842,17.845,37.115,12,34.128,7.845,31.27.573,31.27.573l1.949,128.958c0,.131-4.026,39.481,6.234,44.288" transform="translate(12.737 -14.136)" fill="#499d4a" fill-rule="evenodd"/><path d="M41.281,175.656S-2.487,145.786.111,93.19c2.467-52.6,33.376-78.441,39.35-83.116,3.9-4.156,4.026-5.715,4.287-9.871,2.727,5.845,2.208,87.4,2.6,97.012C47.513,134.228,44.267,168.645,41.281,175.656Z" transform="translate(0 -14.287)" fill="#fff" fill-rule="evenodd"/><path d="M41.281,175.656S-2.487,145.786.111,93.19c2.467-52.6,33.376-78.441,39.35-83.116,3.9-4.156,4.026-5.715,4.287-9.871,2.727,5.845,2.208,87.4,2.6,97.012C47.513,134.228,44.267,168.645,41.281,175.656Z" transform="translate(0 -14.287)" fill="#58aa50" fill-rule="evenodd"/></g></g></svg>