<svg xmlns="http://www.w3.org/2000/svg" xmlns:xlink="http://www.w3.org/1999/xlink" width="300" height="300" viewBox="0 0 300 300"><defs><clipPath id="b"><rect width="300" height="300"/></clipPath></defs><g id="a" clip-path="url(#b)"><g transform="translate(-21.542 41.42)"><path d="M-18.458,6.58H379.693V282.545H-18.458Z" fill="none"/><path d="M74.971,147.066H64.192q-.572-27.291-3.147-51.327h-.1L44.538,147.066H36.331L20.018,95.738h-.094q-1.815,23.083-2.289,51.327H7.81q.95-34.346,4.768-64.4h13.36l15.549,47.322h.1L57.227,82.664H70.01q4.2,35.205,4.962,64.4M121.718,99.55q-6.583,35.724-17.365,51.923-8.4,12.472-18.413,12.477a18.1,18.1,0,0,1-6.582-1.6V156.6a31.7,31.7,0,0,0,4.482.287,10.834,10.834,0,0,0,7.54-2.579,9.407,9.407,0,0,0,3.431-7.057q0-2.681-2.67-10.973L80.312,99.548H90.9l8.49,27.474q2.862,9.358,2.385,13.074a179.46,179.46,0,0,0,9.733-40.55h10.208v0Z" transform="translate(28.446 82.392)" fill="#5d87a1"/><path d="M202.456,147.564H171.837v-64.4h10.3v56.474h20.319Zm-38.634,1.556-11.839-5.843a22,22,0,0,0,2.958-2.876q7.548-8.867,7.542-26.232,0-31.959-25.089-31.964-12.3,0-19.177,8.113-7.542,8.873-7.538,26.143,0,16.981,6.676,24.893,6.108,7.158,18.419,7.161a29.676,29.676,0,0,0,8.432-1.131l15.414,8.973Zm-38.353-14.443q-3.912-6.292-3.912-20.219,0-24.323,14.789-24.333,7.733,0,11.35,5.816,3.905,6.3,3.914,20.036,0,24.523-14.787,24.524-7.736,0-11.354-5.824m-19.279-4.964a17.086,17.086,0,0,1-6.007,13.451q-6.011,5.243-16.116,5.247A32.273,32.273,0,0,1,65.75,142.4l2.768-5.53q7.63,3.821,13.826,3.814,5.821,0,9.113-2.566a8.748,8.748,0,0,0,3.508-7.151c0-3.826-2.668-7.1-7.563-9.836-4.514-2.479-13.541-7.661-13.541-7.661-4.893-3.566-7.342-7.394-7.342-13.7A16,16,0,0,1,72,87.126Q77.49,82.3,86.171,82.3a29.38,29.38,0,0,1,16.307,4.772L100,92.608A31.531,31.531,0,0,0,87.6,89.94c-3.3,0-5.851.794-7.623,2.387a7.979,7.979,0,0,0-2.889,6.109c0,3.808,2.724,7.119,7.753,9.913,4.574,2.483,13.826,7.755,13.826,7.755,5.018,3.56,7.523,7.353,7.523,13.61" transform="translate(91.19 81.894)" fill="#f8981d"/><path d="M254.691,168.834c-9.911-.252-17.584.746-24.025,3.47-1.86.743-4.816.743-5.075,3.093,1,.994,1.12,2.6,1.992,3.971a28.773,28.773,0,0,0,6.437,7.544c2.6,1.989,5.2,3.958,7.932,5.691,4.816,2.98,10.276,4.713,14.969,7.683,2.735,1.727,5.453,3.961,8.19,5.821,1.346.991,2.208,2.6,3.954,3.219v-.378c-.875-1.114-1.124-2.725-1.982-3.964l-3.719-3.586a58.932,58.932,0,0,0-12.874-12.5c-3.964-2.731-12.635-6.444-14.243-11.011l-.252-.252a49.331,49.331,0,0,0,8.545-2c4.213-1.11,8.055-.859,12.377-1.969,1.989-.5,3.961-1.12,5.956-1.734v-1.117c-2.241-2.231-3.838-5.194-6.2-7.3a164.875,164.875,0,0,0-20.432-15.231c-3.845-2.483-8.79-4.08-12.884-6.192-1.475-.746-3.961-1.114-4.829-2.353-2.221-2.725-3.47-6.311-5.081-9.536-3.58-6.8-7.057-14.356-10.146-21.552-2.234-4.826-3.593-9.646-6.318-14.111-12.761-21.048-26.62-33.8-47.92-46.309-4.578-2.605-10.024-3.716-15.841-5.081l-9.291-.491c-1.982-.868-3.968-3.225-5.7-4.339-7.067-4.455-25.261-14.111-30.458-1.362-3.348,8.058,4.952,15.98,7.8,20.067,2.1,2.837,4.833,6.066,6.3,9.288.872,2.1,1.117,4.339,1.989,6.563,1.982,5.449,3.835,11.512,6.44,16.6a59.086,59.086,0,0,0,4.578,7.663c.994,1.372,2.725,1.979,3.1,4.216-1.727,2.466-1.863,6.188-2.854,9.284-4.455,13.991-2.715,31.324,3.6,41.606,1.976,3.1,6.689,9.911,12.993,7.3,5.582-2.227,4.346-9.284,5.95-15.473.368-1.495.126-2.476.868-3.457v.242c1.727,3.464,3.47,6.8,5.071,10.275,3.842,6.063,10.531,12.38,16.1,16.58,2.967,2.241,5.317,6.072,9.032,7.441v-.371h-.245c-.752-1.11-1.853-1.608-2.841-2.469a60.123,60.123,0,0,1-6.44-7.428,159.5,159.5,0,0,1-13.862-22.543c-2-3.845-3.716-8.048-5.323-11.886-.749-1.482-.749-3.716-1.992-4.462-1.863,2.721-4.578,5.078-5.937,8.413-2.357,5.333-2.6,11.893-3.477,18.715l-.487.239c-3.944-.991-5.317-5.071-6.815-8.535-3.709-8.8-4.332-22.918-1.114-33.067.862-2.6,4.591-10.769,3.1-13.242-.746-2.37-3.225-3.719-4.584-5.585A50.332,50.332,0,0,1,114.285,85c-2.97-6.931-4.465-14.611-7.663-21.539-1.495-3.228-4.09-6.57-6.192-9.543-2.36-3.341-4.955-5.695-6.822-9.656-.617-1.362-1.482-3.59-.491-5.071a1.972,1.972,0,0,1,1.734-1.614c1.6-1.356,6.188.368,7.8,1.114a62.737,62.737,0,0,1,12.261,6.188c1.734,1.243,3.593,3.6,5.817,4.216h2.605c3.954.862,8.413.239,12.135,1.359A79.714,79.714,0,0,1,153.3,58.993a109.872,109.872,0,0,1,38.622,42.355c1.482,2.844,2.111,5.449,3.464,8.416,2.609,6.072,5.834,12.264,8.423,18.207,2.6,5.817,5.081,11.757,8.8,16.59,1.853,2.6,9.3,3.961,12.635,5.323,2.469,1.11,6.314,2.1,8.542,3.46,4.213,2.6,8.409,5.575,12.37,8.429,1.972,1.485,8.171,4.581,8.539,7.06M128.383,61.227a19.291,19.291,0,0,0-5.068.623V62.1h.239c1,1.979,2.731,3.351,3.968,5.078,1,1.985,1.863,3.954,2.841,5.937l.239-.245c1.747-1.236,2.615-3.219,2.615-6.192a28.3,28.3,0,0,1-1.495-2.6c-.729-1.24-2.337-1.856-3.338-2.851" transform="translate(46.543 -40.395)" fill="#5d87a1"/><path d="M149.11,117.681h1.612v-7.89H148.3l-1.973,5.384-2.143-5.384h-2.329v7.89h1.523v-6h.085l2.245,6h1.16l2.237-6v6Zm-12.987,0h1.706v-6.553h2.233v-1.339H133.8v1.339h2.322l0,6.553Z" transform="translate(164.878 111.766)" fill="#f8981d"/></g></g></svg>