<svg xmlns="http://www.w3.org/2000/svg" width="23.171" height="33" viewBox="0 0 23.171 33"><path d="M29.964,2.25H13.55c-1.894,0-3.425,1.075-3.425,2.423V32.738c0,1.355,1.532,2.512,3.425,2.512h16.4c1.894,0,3.343-1.156,3.343-2.512V4.673C33.307,3.325,31.858,2.25,29.964,2.25Zm-9.8,1.694h3.1c.228,0,.414.133.414.295s-.186.295-.414.295h-3.1c-.228,0-.414-.133-.414-.295S19.936,3.944,20.163,3.944Zm1.684,30.33a1.629,1.629,0,0,1-1.6-1.536,1.6,1.6,0,0,1,1.6-1.5,1.516,1.516,0,0,1,1.505,1.5A1.542,1.542,0,0,1,21.847,34.274Zm9.6-3.739H11.988c-.114,0-.207-.066-.207-.147V6.154c0-.081.093-.147.207-.147H31.444c.114,0,.207.066.207.147V30.388C31.651,30.469,31.558,30.536,31.444,30.536Z" transform="translate(-10.125 -2.25)"/></svg>