<svg xmlns="http://www.w3.org/2000/svg" xmlns:xlink="http://www.w3.org/1999/xlink" width="300" height="300" viewBox="0 0 300 300"><defs><clipPath id="b"><rect width="300" height="300"/></clipPath></defs><g id="a" clip-path="url(#b)"><g transform="translate(-1432.2 -1426.823)"><path d="M203.414,801.706s-7.742,4.51,5.53,6.031c16.071,1.832,24.3,1.573,42.009-1.78a72.933,72.933,0,0,0,11.181,5.443C222.388,828.439,172.2,810.432,203.414,801.706ZM198.558,779.5s-8.692,6.428,4.579,7.811c17.177,1.78,30.742,1.918,54.21-2.592a24.087,24.087,0,0,0,8.347,5.1C217.688,803.849,164.2,790.905,198.558,779.5Z" transform="translate(1348.316 783.161)" fill="#5582a0"/><path d="M444.627,295.457c9.8,11.267-2.575,21.411-2.575,21.411s24.85-12.822,13.444-28.893c-10.662-14.982-18.836-22.413,25.42-48.075C480.916,239.883,411.448,257.233,444.627,295.457Z" transform="translate(1143.168 1229.514)" fill="#f69731"/><path d="M136.764,698.689s5.737,4.735-6.325,8.381c-22.932,6.947-95.424,9.038-115.573.276-7.241-3.145,6.342-7.517,10.61-8.433a27.79,27.79,0,0,1,7-.795c-8.053-5.668-52.032,11.129-22.344,15.95C91.126,727.2,157.76,708.176,136.764,698.689ZM51.9,637.031s-36.877,8.761-13.064,11.941c10.057,1.348,30.1,1.037,48.783-.536,15.259-1.279,30.587-4.026,30.587-4.026a66.884,66.884,0,0,0-9.28,4.96c-37.447,9.85-109.8,5.271-88.961-4.8,17.609-8.5,31.935-7.534,31.935-7.534Zm66.151,36.981c38.069-19.769,20.46-38.778,8.174-36.22a27.529,27.529,0,0,0-4.355,1.175,7,7,0,0,1,3.249-2.506c24.314-8.537,42.994,25.2-7.845,38.571a3.732,3.732,0,0,0,.778-1.02Z" transform="translate(1503.564 902.612)" fill="#5582a0"/><path d="M325.961,0s21.083,21.1-19.994,53.518c-32.937,26.025-7.517,40.852-.017,57.8-19.233-17.35-33.335-32.626-23.882-46.831C295.962,43.617,334.464,33.49,325.961,0Z" transform="translate(1272.703 1427.957)" fill="#f69731"/><path d="M184.869,768.358c36.531,2.333,92.659-1.3,93.99-18.594,0,0-2.558,6.549-30.189,11.751-31.192,5.875-69.659,5.184-92.469,1.417C156.183,762.949,160.866,766.8,184.869,768.358Z" transform="translate(1374.327 861.87)" fill="#5582a0"/><path d="M1871.4,694.1h31.5v7.517h-21.48V721.3h17.9v7.171h-17.9v21.912h22.206v7.448H1871.4Zm45.846,0h31.5v7.517h-21.48V721.3h17.9v7.171h-17.9v21.912h22.206v7.448h-32.229Z" transform="translate(-243.292 951.406)" fill="#f8981d"/><path d="M976.971,748.94c-3.439,2.99-7.085,4.666-10.351,4.666-4.666,0-7.189-2.8-7.189-7.275,0-4.856,2.713-8.4,13.531-8.4h4.009Zm9.5,10.731V726.457c0-8.485-4.839-14.084-16.5-14.084a43.552,43.552,0,0,0-17.626,3.819l1.4,5.875a41.024,41.024,0,0,1,13.617-2.713c6.722,0,9.608,2.713,9.608,8.312v4.2h-3.352c-16.33,0-23.692,6.325-23.692,15.864,0,8.208,4.856,12.874,14,12.874,5.875,0,10.265-2.419,14.36-5.979l.743,5.046Zm31.745,0h-11.855L992.092,713.22h10.351l8.865,28.548,1.97,8.571a179.1,179.1,0,0,0,9.228-37.119h10.075C1029.885,728.514,1025.029,745.293,1018.221,759.671Zm45.517-10.731c-3.456,2.99-7.1,4.666-10.368,4.666-4.666,0-7.189-2.8-7.189-7.275,0-4.856,2.713-8.4,13.531-8.4h4.009Zm9.5,10.731V726.457c0-8.485-4.856-14.084-16.52-14.084a43.638,43.638,0,0,0-17.644,3.819l1.4,5.875a41.114,41.114,0,0,1,13.617-2.713c6.722,0,9.608,2.713,9.608,8.312v4.2h-3.353c-16.33,0-23.692,6.325-23.692,15.864,0,8.208,4.856,12.874,14,12.874,5.875,0,10.265-2.419,14.377-5.979l.743,5.046Zm-133.753,7.9a24.918,24.918,0,0,1-11.889,8.865l-4.7-5.53a19.748,19.748,0,0,0,8.226-7.707c1.261-2.506,1.78-5.737,1.78-13.444V696.7h10.109v52.309c0,10.317-.812,14.481-3.525,18.56Z" transform="translate(541.3 949.255)" fill="#5582a0"/></g></g></svg>