<svg xmlns="http://www.w3.org/2000/svg" xmlns:xlink="http://www.w3.org/1999/xlink" width="300" height="300" viewBox="0 0 300 300"><defs><linearGradient id="a" x1="0.682" y1="0.175" x2="0.278" y2="0.898" gradientUnits="objectBoundingBox"><stop offset="0" stop-color="#41873f"/><stop offset="0.329" stop-color="#418b3d"/><stop offset="0.635" stop-color="#419637"/><stop offset="0.932" stop-color="#3fa92d"/><stop offset="1" stop-color="#3fae2a"/></linearGradient><linearGradient id="b" x1="0.433" y1="0.552" x2="1.592" y2="-0.183" gradientUnits="objectBoundingBox"><stop offset="0.138" stop-color="#41873f"/><stop offset="0.403" stop-color="#54a044"/><stop offset="0.714" stop-color="#66b848"/><stop offset="0.908" stop-color="#6cc04a"/></linearGradient><linearGradient id="c" x1="-44.138" y1="0.134" x2="53.279" y2="0.134" gradientUnits="objectBoundingBox"><stop offset="0.092" stop-color="#6cc04a"/><stop offset="0.286" stop-color="#66b848"/><stop offset="0.597" stop-color="#54a044"/><stop offset="0.862" stop-color="#41873f"/></linearGradient><linearGradient id="d" x1="-0.044" y1="0.5" x2="1.015" y2="0.5" xlink:href="#c"/><linearGradient id="e" x1="-97.138" y1="0.362" x2="0.279" y2="0.362" xlink:href="#c"/><linearGradient id="f" x1="-1.039" y1="0.503" x2="1.008" y2="0.503" xlink:href="#c"/><linearGradient id="g" x1="1.306" y1="-2.111" x2="0.044" y2="2.016" xlink:href="#a"/><clipPath id="i"><rect width="300" height="300"/></clipPath></defs><g id="h" clip-path="url(#i)"><g transform="translate(13.769 16)"><path d="M264.734,339.29a12.249,12.249,0,0,1-5.865-1.536L240.3,326.724c-2.793-1.537-1.4-2.1-.558-2.374a33.878,33.878,0,0,0,8.378-3.77,1.283,1.283,0,0,1,1.4.139l14.244,8.518a1.774,1.774,0,0,0,1.675,0l55.718-32.257a1.605,1.605,0,0,0,.839-1.536V231.069a1.606,1.606,0,0,0-.839-1.537l-55.718-32.117a1.767,1.767,0,0,0-1.675,0L208.04,229.532a1.753,1.753,0,0,0-.839,1.536v64.375a1.755,1.755,0,0,0,.839,1.537l15.221,8.8c8.239,4.189,13.405-.7,13.405-5.586V236.653a1.7,1.7,0,0,1,1.676-1.676h7.121a1.7,1.7,0,0,1,1.676,1.676v63.537c0,11.031-6,17.455-16.478,17.455-3.211,0-5.725,0-12.847-3.492l-14.662-8.378a11.784,11.784,0,0,1-5.865-10.194V231.208a11.784,11.784,0,0,1,5.865-10.194l55.716-32.257a12.465,12.465,0,0,1,11.731,0l55.716,32.257a11.786,11.786,0,0,1,5.866,10.194v64.375a11.786,11.786,0,0,1-5.866,10.194L270.6,338.034a14.282,14.282,0,0,1-5.865,1.257Zm17.176-44.266c-24.437,0-29.464-11.171-29.464-20.667a1.7,1.7,0,0,1,1.676-1.676h7.262a1.435,1.435,0,0,1,1.536,1.4c1.118,7.4,4.329,11.031,19.131,11.031,11.73,0,16.758-2.653,16.758-8.937,0-3.631-1.4-6.283-19.691-8.1-15.221-1.537-24.717-4.887-24.717-17.036,0-11.311,9.5-18.015,25.415-18.015,17.873,0,26.672,6.145,27.789,19.549a2.254,2.254,0,0,1-.419,1.258,1.727,1.727,0,0,1-1.118.558h-7.261a1.635,1.635,0,0,1-1.536-1.257c-1.676-7.68-6-10.194-17.455-10.194-12.847,0-14.384,4.469-14.384,7.82,0,4.05,1.816,5.307,19.131,7.541,17.176,2.235,25.276,5.447,25.276,17.455C309.7,288.042,299.646,295.024,281.91,295.024Z" transform="translate(-128.504 -67.291)" fill="#539e43"/><path d="M58.64,55.7A3.129,3.129,0,0,0,57.041,53L30.972,38a3.786,3.786,0,0,0-1.414-.431h-.246A2.921,2.921,0,0,0,27.9,38L1.83,53A3.127,3.127,0,0,0,.231,55.7L.293,96.036a1.529,1.529,0,0,0,.8,1.353,1.4,1.4,0,0,0,1.537,0l15.494-8.854a3.128,3.128,0,0,0,1.6-2.705V66.955a3.127,3.127,0,0,1,1.6-2.705L27.9,60.438a2.979,2.979,0,0,1,1.6-.431,2.643,2.643,0,0,1,1.537.431l6.578,3.812a3.127,3.127,0,0,1,1.6,2.705V85.83a3.128,3.128,0,0,0,1.6,2.705L56.3,97.389a1.5,1.5,0,0,0,1.6,0,1.528,1.528,0,0,0,.8-1.353L58.64,55.7ZM183.942.184a1.691,1.691,0,0,0-1.537,0,1.6,1.6,0,0,0-.8,1.352V41.5a1.107,1.107,0,0,1-1.66.984l-6.517-3.75a3.169,3.169,0,0,0-3.136,0L144.224,53.8a3.128,3.128,0,0,0-1.6,2.705V86.567a3.129,3.129,0,0,0,1.6,2.706l26.069,15.063a3.169,3.169,0,0,0,3.136,0L199.5,89.273a3.128,3.128,0,0,0,1.6-2.706V11.62a3.154,3.154,0,0,0-1.6-2.767L183.942.184Zm-2.4,76.485a.705.705,0,0,1-.369.676l-8.915,5.164a.912.912,0,0,1-.8,0l-8.915-5.164a.771.771,0,0,1-.369-.676V66.34a.705.705,0,0,1,.369-.676L171.46,60.5a.912.912,0,0,1,.8,0l8.915,5.165a.77.77,0,0,1,.369.676V76.669Zm89.15-10.575a3.07,3.07,0,0,0,1.537-2.706V56.072a3.2,3.2,0,0,0-1.537-2.705l-25.884-15a3.169,3.169,0,0,0-3.135,0L215.605,53.428a3.127,3.127,0,0,0-1.6,2.706V86.2a3.127,3.127,0,0,0,1.6,2.705L241.49,103.66a3.054,3.054,0,0,0,3.074,0l15.678-8.73a1.544,1.544,0,0,0,0-2.706L234.05,77.161a1.6,1.6,0,0,1-.8-1.352V66.4a1.529,1.529,0,0,1,.8-1.353l8.177-4.673a1.5,1.5,0,0,1,1.6,0L252,65.049a1.6,1.6,0,0,1,.8,1.353V73.78a1.527,1.527,0,0,0,.8,1.352,1.5,1.5,0,0,0,1.6,0l15.494-9.038Z" transform="translate(0 0)"/><path d="M451.641,121.5a.559.559,0,0,1,.614,0l4.98,2.89a.644.644,0,0,1,.307.553v5.779a.645.645,0,0,1-.307.553l-4.98,2.89a.559.559,0,0,1-.614,0l-4.98-2.89a.645.645,0,0,1-.307-.553v-5.779a.644.644,0,0,1,.307-.553Z" transform="translate(-208.798 -56.825)" fill="#539e43"/><g transform="translate(71.428 33.016)"><path d="M31.019,1.485a3.169,3.169,0,0,0-3.135,0L2,16.424A3.07,3.07,0,0,0,.462,19.129V49.072A3.2,3.2,0,0,0,2,51.777l25.884,14.94a3.169,3.169,0,0,0,3.135,0L56.9,51.777a3.071,3.071,0,0,0,1.537-2.705V19.13A3.2,3.2,0,0,0,56.9,16.425Z" transform="translate(-0.216 3.987)" fill="url(#a)"/><g transform="translate(0 5.047)"><path d="M27.606,1.476,1.66,16.415A3.189,3.189,0,0,0,0,19.121V49.064a2.962,2.962,0,0,0,.8,1.967L29.942,1.107a3.513,3.513,0,0,0-2.336.369Zm2.521,65.54a3.78,3.78,0,0,0,.738-.307L56.81,51.768a3.127,3.127,0,0,0,1.6-2.705V19.121a3.132,3.132,0,0,0-.922-2.152L30.127,67.016Z" transform="translate(0 -1.051)" fill="none"/><path d="M57.451,16.519,31.444,1.579a4.269,4.269,0,0,0-.8-.307L1.5,51.2a3.235,3.235,0,0,0,.861.738L28.37,66.875a3,3,0,0,0,2.4.307l27.36-50.047a3.226,3.226,0,0,0-.677-.615Z" transform="translate(-0.703 -1.154)" fill="url(#b)"/></g><g transform="translate(0 0)"><path d="M58.409,49.113V19.171a3.188,3.188,0,0,0-1.66-2.705L30.74,1.526a2.716,2.716,0,0,0-.983-.369L58.224,49.79a1.24,1.24,0,0,0,.185-.676ZM1.66,16.466A3.19,3.19,0,0,0,0,19.171V49.114a3.324,3.324,0,0,0,1.66,2.705l26.007,14.94a2.9,2.9,0,0,0,2.029.369L1.844,16.4l-.184.062Z" transform="translate(0 3.947)" fill="none"/><path d="M50.067.809,49.7.994h.492Z" transform="translate(-23.26 -0.809)" fill-rule="evenodd" fill="url(#c)"/><path d="M58.379,61.014a3.5,3.5,0,0,0,1.537-1.967L31.387,10.353a3.122,3.122,0,0,0-2.213.369L3.351,25.6,31.2,76.385a4.286,4.286,0,0,0,1.168-.369l26.007-15Z" transform="translate(-1.568 -5.25)" fill-rule="evenodd" fill="url(#d)"/><path d="M111.138,104.441l-.185-.307v.43l.184-.123Z" transform="translate(-51.929 -49.168)" fill-rule="evenodd" fill="url(#e)"/><path d="M82.937,103.851l-25.946,14.94a3.709,3.709,0,0,1-1.168.369l.492.922,28.774-16.661v-.369l-.738-1.23A2.857,2.857,0,0,1,82.937,103.851Z" transform="translate(-26.127 -48.086)" fill-rule="evenodd" fill="url(#f)"/><path d="M82.937,103.851l-25.946,14.94a3.709,3.709,0,0,1-1.168.369l.492.922,28.774-16.661v-.369l-.738-1.23A2.857,2.857,0,0,1,82.937,103.851Z" transform="translate(-26.127 -48.086)" fill-rule="evenodd" fill="url(#g)"/></g></g></g></g></svg>