<svg xmlns="http://www.w3.org/2000/svg" xmlns:xlink="http://www.w3.org/1999/xlink" width="300" height="300" viewBox="0 0 300 300"><defs><clipPath id="b"><rect width="300" height="300"/></clipPath></defs><g id="a" clip-path="url(#b)"><g transform="translate(-98.904 184.199)"><path d="M142.188,9.17a66.149,66.149,0,0,1-8.355,14.621A77.838,77.838,0,1,0,21.842,131.927a28.872,28.872,0,0,0,3.214,3.053l2.892,2.571A77.808,77.808,0,0,0,155.684,83.563C157.934,64.122,151.989,39.056,142.188,9.17ZM36.3,135.783a6.625,6.625,0,1,1-.964-9.319A6.769,6.769,0,0,1,36.3,135.783Zm105.4-23.3c-19.12,25.547-60.253,16.871-86.444,18.156,0,0-4.66.321-9.319.964,0,0,1.767-.8,4.017-1.607,18.478-6.427,27.154-7.712,38.4-13.5,21.049-10.765,42.1-34.385,46.275-58.807-8.034,23.459-32.456,43.7-54.63,51.9-15.264,5.624-42.74,11.087-42.74,11.087l-1.125-.643C17.5,110.878,16.861,70.388,50.924,57.373c14.943-5.784,29.082-2.571,45.311-6.427,17.192-4.017,37.116-16.871,45.15-33.742C150.382,44.358,161.308,86.455,141.706,112.485Z" transform="translate(170.816 -160.179)" fill="#6db33f"/><path d="M124.533,70.46a4.331,4.331,0,0,1-2.132-3.945,4.642,4.642,0,0,1,4.585-4.691h.107a4.953,4.953,0,0,1,2.452.64,27.007,27.007,0,0,0,14.394,4.8c4.9,0,7.783-2.132,7.783-5.438v-.213c0-3.945-5.331-5.224-11.2-7.037-7.357-2.132-15.673-5.118-15.673-14.714v-.213c0-9.489,7.89-15.247,17.806-15.247a35.385,35.385,0,0,1,15.78,4.052,4.817,4.817,0,0,1,2.772,4.371,4.733,4.733,0,0,1-4.691,4.691h-.107a5.73,5.73,0,0,1-2.239-.533,26.677,26.677,0,0,0-11.728-3.412c-4.478,0-7.037,2.132-7.037,4.9v.213c0,3.732,5.438,5.224,11.3,7.144,7.357,2.239,15.567,5.651,15.567,14.607v.213c0,10.556-8.21,15.78-18.552,15.78A35.158,35.158,0,0,1,124.533,70.46Z" transform="translate(0 12.223)" fill="#6db33f"/><path d="M163.8,30.271a5.688,5.688,0,0,1,5.544-5.758h.107a5.734,5.734,0,0,1,5.758,5.758h0v3.412c3.732-5.224,8.956-9.383,17.059-9.383,11.728,0,23.243,9.276,23.243,26.016v.213c0,16.633-11.408,26.016-23.243,26.016-8.316,0-13.541-4.158-17.059-8.85v17.7a5.734,5.734,0,0,1-5.758,5.758h0A5.688,5.688,0,0,1,163.8,85.5V30.271ZM204,50.529v-.213c0-9.7-6.5-15.993-14.287-15.993S175.1,40.826,175.1,50.316v.213c0,9.6,6.824,15.993,14.607,15.993S204,60.445,204,50.529Z" transform="translate(2.742 12.216)" fill="#6db33f"/><path d="M216.507,30.258a5.688,5.688,0,0,1,5.544-5.758h.107a5.734,5.734,0,0,1,5.758,5.758h0v2.772c.533-4.265,7.57-8.53,12.581-8.53a5.253,5.253,0,0,1,5.651,4.8v.853a5.526,5.526,0,0,1-4.585,5.544c-8.21,1.386-13.754,8.53-13.754,18.445V70.668a5.706,5.706,0,0,1-11.408.107v-.107l.107-40.41Z" transform="translate(6.225 12.229)" fill="#6db33f"/><path d="M248.6,30.358a5.688,5.688,0,0,1,5.544-5.758h.107a5.734,5.734,0,0,1,5.758,5.758h0V70.767a5.7,5.7,0,0,1-11.408,0Z" transform="translate(8.356 12.236)" fill="#6db33f"/><path d="M264.807,30.365a5.688,5.688,0,0,1,5.544-5.758h.107a5.734,5.734,0,0,1,5.758,5.758h0V32.71a17.875,17.875,0,0,1,15.673-8.21c11.3,0,17.806,7.57,17.806,19.192V70.668a5.506,5.506,0,0,1-5.438,5.651h-.213a5.688,5.688,0,0,1-5.758-5.544V47.211c0-7.783-3.838-12.261-10.769-12.261-6.611,0-11.3,4.691-11.3,12.475v23.35a5.758,5.758,0,1,1-11.515,0l.107-40.41Z" transform="translate(9.423 12.229)" fill="#6db33f"/><path d="M357.16,24.413a5.734,5.734,0,0,0-5.758,5.758h0v3.412c-3.732-5.224-8.956-9.383-17.059-9.383-11.728,0-23.243,9.276-23.243,26.016v.213c0,16.633,11.409,26.016,23.243,26.016,8.316,0,13.541-4.158,17.059-8.743-.533,9.063-6.077,13.754-15.78,13.754a31.075,31.075,0,0,1-15.353-3.945,4.327,4.327,0,0,0-2.026-.426,4.772,4.772,0,0,0-1.706,9.276,43.878,43.878,0,0,0,19.405,4.478c9.063,0,16.1-2.132,20.578-6.717,4.158-4.158,6.4-10.449,6.4-18.872V30.277a5.733,5.733,0,0,0-5.651-5.864ZM337.009,66.529c-7.89,0-14.287-6.184-14.287-16.1v-.213c0-9.7,6.5-15.993,14.287-15.993s14.607,6.5,14.607,15.993v.213C351.723,60.025,344.9,66.529,337.009,66.529Z" transform="translate(12.495 12.21)" fill="#6db33f"/><path d="M260.115,11.958A5.758,5.758,0,1,1,254.358,6.2h0a5.688,5.688,0,0,1,5.758,5.544Z" transform="translate(8.357 11.018)" fill="#6db33f"/><path d="M85.6,96.668A77.642,77.642,0,0,0,103.756,52" transform="translate(222.744 -128.616)" fill="#6db33f"/><path d="M132.872,105.981c-19.12,25.547-60.253,16.871-86.444,18.156,0,0-4.66.321-9.319.964,0,0,1.767-.8,4.017-1.607,18.478-6.427,27.154-7.712,38.4-13.5,21.049-10.765,42.1-34.385,46.275-58.807-8.034,23.459-32.456,43.7-54.63,51.9-15.264,5.624-42.74,11.087-42.74,11.087l-1.125-.643C8.67,104.374,8.027,63.884,42.09,50.869,57.033,45.085,71.173,48.3,87.4,44.442c17.192-4.017,37.116-16.871,45.15-33.742C141.549,37.854,152.475,79.951,132.872,105.981Z" transform="translate(179.649 -153.675)" fill="#fff"/><path d="M27.041,88.577a6.625,6.625,0,1,1-.964-9.319A6.769,6.769,0,0,1,27.041,88.577Z" transform="translate(180.077 -112.973)" fill="#fff"/></g></g></svg>